<svg width="24" height="24" viewBox="0 0 24 24" fill="none" xmlns="http://www.w3.org/2000/svg">
<path fill-rule="evenodd" clip-rule="evenodd" d="M24 5.56098C24 4.08611 23.4141 2.67166 22.3712 1.62877C21.3283 0.585887 19.9139 0 18.439 0C16.9642 0 15.5497 0.585887 14.5068 1.62877C13.4639 2.67166 12.878 4.08611 12.878 5.56098C12.878 7.03584 13.4639 8.45029 14.5068 9.49318C15.5497 10.5361 16.9642 11.122 18.439 11.122C19.9139 11.122 21.3283 10.5361 22.3712 9.49318C23.4141 8.45029 24 7.03584 24 5.56098ZM11.122 18.439C11.122 17.7087 10.9781 16.9856 10.6986 16.3109C10.4192 15.6362 10.0096 15.0232 9.49318 14.5068C8.97679 13.9904 8.36376 13.5808 7.68907 13.3014C7.01438 13.0219 6.29125 12.878 5.56098 12.878C4.8307 12.878 4.10757 13.0219 3.43288 13.3014C2.75819 13.5808 2.14516 13.9904 1.62877 14.5068C1.11239 15.0232 0.702769 15.6362 0.423304 16.3109C0.143839 16.9856 -1.0882e-08 17.7087 0 18.439C2.19772e-08 19.9139 0.585887 21.3283 1.62877 22.3712C2.67166 23.4141 4.08611 24 5.56098 24C7.03584 24 8.45029 23.4141 9.49318 22.3712C10.5361 21.3283 11.122 19.9139 11.122 18.439Z" fill="#FF7B00"/>
<path opacity="0.5" fill-rule="evenodd" clip-rule="evenodd" d="M0 5.56098C-1.0882e-08 4.8307 0.143839 4.10757 0.423304 3.43288C0.702769 2.75819 1.11239 2.14516 1.62877 1.62877C2.14516 1.11239 2.75819 0.702769 3.43288 0.423304C4.10757 0.143839 4.8307 0 5.56098 0C6.29125 0 7.01438 0.143839 7.68907 0.423304C8.36376 0.702769 8.97679 1.11239 9.49318 1.62877C10.0096 2.14516 10.4192 2.75819 10.6986 3.43288C10.9781 4.10757 11.122 4.8307 11.122 5.56098C11.122 7.03584 10.5361 8.45029 9.49318 9.49318C8.45029 10.5361 7.03584 11.122 5.56098 11.122C4.08611 11.122 2.67166 10.5361 1.62877 9.49318C0.585887 8.45029 2.19772e-08 7.03584 0 5.56098ZM12.878 18.439C12.878 16.9642 13.4639 15.5497 14.5068 14.5068C15.5497 13.4639 16.9642 12.878 18.439 12.878C19.9139 12.878 21.3283 13.4639 22.3712 14.5068C23.4141 15.5497 24 16.9642 24 18.439C24 19.9139 23.4141 21.3283 22.3712 22.3712C21.3283 23.4141 19.9139 24 18.439 24C16.9642 24 15.5497 23.4141 14.5068 22.3712C13.4639 21.3283 12.878 19.9139 12.878 18.439Z" fill="#FF7B00"/>
</svg>
